<svg width="17" height="17" viewBox="0 0 17 17" fill="none" xmlns="http://www.w3.org/2000/svg">
<g clip-path="url(#clip0)">
<path d="M15.4331 0.439941H2.43311C1.60467 0.439941 0.933105 1.1115 0.933105 1.93994V14.9399C0.933105 15.7684 1.60467 16.4399 2.43311 16.4399H15.4331C16.2615 16.4399 16.9331 15.7684 16.9331 14.9399V1.93994C16.9331 1.1115 16.2615 0.439941 15.4331 0.439941ZM15.9331 14.9399C15.9331 15.2161 15.7093 15.4399 15.4331 15.4399H2.43311C2.15695 15.4399 1.93311 15.2161 1.93311 14.9399V1.93994C1.93311 1.66379 2.15695 1.43994 2.43311 1.43994H15.4331C15.7093 1.43994 15.9331 1.66379 15.9331 1.93994V14.9399Z" fill="#3E7DDB"/>
<path d="M11.7882 9.08499C11.5931 8.89111 11.2782 8.89111 11.0832 9.08499L9.93316 10.235L7.78816 8.08999C7.59313 7.89611 7.27819 7.89611 7.08316 8.08999L3.58316 11.59C3.38985 11.7872 3.39294 12.1037 3.59013 12.297C3.68185 12.387 3.80469 12.4382 3.93316 12.44H13.9332C14.2093 12.4416 14.4344 12.219 14.4361 11.9429C14.4368 11.8085 14.3835 11.6796 14.2882 11.585L11.7882 9.08499Z" fill="#3E7DDB"/>
<path d="M10.4331 7.43994C11.2615 7.43994 11.9331 6.76837 11.9331 5.93994C11.9331 5.11151 11.2615 4.43994 10.4331 4.43994C9.60468 4.43994 8.93311 5.11151 8.93311 5.93994C8.93311 6.76837 9.60468 7.43994 10.4331 7.43994Z" fill="#3E7DDB"/>
</g>
<defs>
<clipPath id="clip0">
<rect x="0.933105" y="0.439941" width="16" height="16" fill="white"/>
</clipPath>
</defs>
</svg>
