<svg width="30" height="30" viewBox="0 0 30 30" fill="none" xmlns="http://www.w3.org/2000/svg">
<path d="M30 30.0003C27.1581 30.0932 24.3312 29.5525 21.7241 28.4175C11.9741 33.3313 0 26.3227 0 15.0003C0.000588491 8.49328 4.19643 2.72875 10.3883 0.728175C16.5801 -1.2724 23.3556 0.947309 27.1635 6.22383C30.9713 11.5003 30.9429 18.6302 27.0931 23.8762C27.4138 25.7641 28.1328 28.4486 30 30.0003Z" fill="#2980BA"/>
<path d="M30 30C27.1581 30.0929 24.3312 29.5523 21.7242 28.4172C19.6389 29.4675 17.3348 30.0099 15 30V28.1897C15.0028 27.7105 14.8143 27.25 14.4765 26.9102C14.1386 26.5704 13.6792 26.3793 13.2 26.3793H12.6C11.6002 26.3793 10.7897 25.5688 10.7897 24.569C10.7897 23.5691 11.6002 22.7586 12.6 22.7586H15.6C16.0792 22.7586 16.5386 22.5676 16.8765 22.2278C17.2143 21.888 17.4028 21.4275 17.4 20.9483C17.4 19.9525 18.2042 19.1436 19.2 19.1379H29.4207C28.9343 20.8421 28.1459 22.4451 27.0931 23.8707C27.4138 25.7638 28.1328 28.4483 30 30Z" fill="#4FBA6F"/>
<path d="M14.4 16.2931C14.4027 16.7722 14.2143 17.2327 13.8764 17.5725C13.5386 17.9124 13.0792 18.1034 12.6 18.1034H0.320666C-0.461857 14.3801 0.196146 10.4987 2.16205 7.24133H10.2C11.1998 7.24133 12.0103 8.05185 12.0103 9.05168C12.0103 10.0515 11.1998 10.862 10.2 10.862H7.79998C6.80015 10.862 5.98963 11.6725 5.98963 12.6724C5.98963 13.6722 6.80015 14.4827 7.79998 14.4827H12.6C13.0792 14.4827 13.5386 14.6738 13.8764 15.0136C14.2143 15.3534 14.4027 15.8139 14.4 16.2931Z" fill="#4FBA6F"/>
<path d="M29.9586 13.9655H21.5999C21.1208 13.9655 20.6613 13.7745 20.3235 13.4347C19.9856 13.0949 19.7972 12.6344 19.7999 12.1552C19.8 11.1594 18.9957 10.3505 17.9999 10.3448H17.3999C16.4001 10.3448 15.5896 9.53431 15.5896 8.53448C15.5896 7.53466 16.4001 6.72414 17.3999 6.72414H20.3999C20.8791 6.72415 21.3385 6.53309 21.6764 6.19328C22.0143 5.85347 22.2027 5.39297 22.1999 4.9138C22.1999 3.918 23.0042 3.10914 23.9999 3.10345L24.0517 3.04138C27.5127 5.65295 29.6683 9.63945 29.9586 13.9655Z" fill="#4FBA6F"/>
</svg>
